<svg width="90" height="90" viewBox="0 0 90 90" fill="none" xmlns="http://www.w3.org/2000/svg">
<path d="M3 45C3 21.8429 21.8429 3 45 3C68.1571 3 87 21.8429 87 45C87 68.1571 68.1571 87 45 87C21.8429 87 3 68.1571 3 45Z" stroke="#018B2E" stroke-width="6"/>
<path d="M66.3772 35.2518L41.4843 60.1693C40.7375 60.9169 39.7572 61.2931 38.7769 61.2931C37.7966 61.2931 36.8162 60.9169 36.0694 60.1693L23.6234 47.7106C22.1255 46.2119 22.1255 43.7888 23.6234 42.2902C25.1205 40.7908 27.5404 40.7908 29.0382 42.2902L38.7769 52.0387L60.9623 29.8314C62.4594 28.3321 64.8793 28.3321 66.3772 29.8314C67.8743 31.3301 67.8743 33.7525 66.3772 35.2518Z" fill="#018B2E"/>
</svg>
